<?xml version="1.0" encoding="UTF-8" standalone="no"?>
<svg
   height="691.90mm"
   viewBox="0.0 0.0 422.90 691.90"
   width="422.90mm"
   version="1.1"
   id="svg11"
   sodipodi:docname="BoxRiddle_final.svg"
   inkscape:version="1.4.3 (0d15f75, 2025-12-25)"
   xml:space="preserve"
   xmlns:inkscape="http://www.inkscape.org/namespaces/inkscape"
   xmlns:sodipodi="http://sodipodi.sourceforge.net/DTD/sodipodi-0.dtd"
   xmlns="http://www.w3.org/2000/svg"
   xmlns:svg="http://www.w3.org/2000/svg"
   xmlns:rdf="http://www.w3.org/1999/02/22-rdf-syntax-ns#"
   xmlns:cc="http://creativecommons.org/ns#"
   xmlns:dc="http://purl.org/dc/elements/1.1/"><defs
     id="defs11" /><sodipodi:namedview
     id="namedview11"
     pagecolor="#ffffff"
     bordercolor="#000000"
     borderopacity="0.25"
     inkscape:showpageshadow="2"
     inkscape:pageopacity="0.0"
     inkscape:pagecheckerboard="0"
     inkscape:deskcolor="#d1d1d1"
     inkscape:document-units="mm"
     inkscape:zoom="0.80795046"
     inkscape:cx="1316.2936"
     inkscape:cy="893.00029"
     inkscape:window-width="1920"
     inkscape:window-height="986"
     inkscape:window-x="-11"
     inkscape:window-y="-11"
     inkscape:window-maximized="1"
     inkscape:current-layer="svg11" /><!--
SlidingDrawer - Sliding drawer box

Created with Boxes.py (https://boxes.hackerspace-bamberg.de/)
Creation date: 2026-02-27 11:23:40
Command line (remove spaces between dashes): boxes SlidingDrawer - -x=200 - -y=200 - -h=70 - -outside=0 - -outside=1 - -thickness=5.0 - -spacing=0.5
Url: https://boxes.hackerspace-bamberg.de/SlidingDrawer?FingerJoint_style=rectangular&FingerJoint_surroundingspaces=2.0&FingerJoint_bottom_lip=0.0&FingerJoint_edge_width=1.0&FingerJoint_extra_length=0.0&FingerJoint_finger=2.0&FingerJoint_play=0.0&FingerJoint_space=2.0&FingerJoint_width=1.0&Grooved_arc_angle=120&Grooved_gap=0.1&Grooved_interleave=0&Grooved_inverse=0&Grooved_margin=0.3&Grooved_style=arc&Grooved_tri_angle=30&Grooved_width=0.4&x=200&y=200&h=70&hi=0&outside=0&outside=1&play=0.15&thickness=5.0&burn=0.1&format=svg&labels=0&labels=1&reference=100.0&tabs=0.0&qr_code=0&inner_corners=loop&spacing=0.5&debug=0&language=en&render=2
Url short: https://boxes.hackerspace-bamberg.de/SlidingDrawer?x=200&y=200&h=70&outside=0&outside=1&thickness=5.0&spacing=0.5
SettingsUrl: https://boxes.hackerspace-bamberg.de/SlidingDrawer?FingerJoint_style=rectangular&FingerJoint_surroundingspaces=2.0&FingerJoint_bottom_lip=0.0&FingerJoint_edge_width=1.0&FingerJoint_extra_length=0.0&FingerJoint_finger=2.0&FingerJoint_play=0.0&FingerJoint_space=2.0&FingerJoint_width=1.0&Grooved_arc_angle=120&Grooved_gap=0.1&Grooved_interleave=0&Grooved_inverse=0&Grooved_margin=0.3&Grooved_style=arc&Grooved_tri_angle=30&Grooved_width=0.4&x=200&y=200&h=70&hi=0&outside=0&outside=1&play=0.15&thickness=5.0&burn=0.1&format=svg&labels=0&labels=1&reference=100.0&tabs=0.0&qr_code=0&inner_corners=loop&spacing=0.5&debug=0&language=en&render=2
SettingsUrl short: https://boxes.hackerspace-bamberg.de/SlidingDrawer?x=200&y=200&h=70&outside=0&outside=1&thickness=5.0&spacing=0.5
--><title
     id="title1">SlidingDrawer</title><metadata
     id="metadata1"><rdf:RDF><cc:Work><dc:title>SlidingDrawer</dc:title><dc:date>2026-02-27 11:23:40</dc:date><dc:source>https://boxes.hackerspace-bamberg.de/SlidingDrawer?FingerJoint_style=rectangular&amp;FingerJoint_surroundingspaces=2.0&amp;FingerJoint_bottom_lip=0.0&amp;FingerJoint_edge_width=1.0&amp;FingerJoint_extra_length=0.0&amp;FingerJoint_finger=2.0&amp;FingerJoint_play=0.0&amp;FingerJoint_space=2.0&amp;FingerJoint_width=1.0&amp;Grooved_arc_angle=120&amp;Grooved_gap=0.1&amp;Grooved_interleave=0&amp;Grooved_inverse=0&amp;Grooved_margin=0.3&amp;Grooved_style=arc&amp;Grooved_tri_angle=30&amp;Grooved_width=0.4&amp;x=200&amp;y=200&amp;h=70&amp;hi=0&amp;outside=0&amp;outside=1&amp;play=0.15&amp;thickness=5.0&amp;burn=0.1&amp;format=svg&amp;labels=0&amp;labels=1&amp;reference=100.0&amp;tabs=0.0&amp;qr_code=0&amp;inner_corners=loop&amp;spacing=0.5&amp;debug=0&amp;language=en&amp;render=2</dc:source><dc:source>https://boxes.hackerspace-bamberg.de/SlidingDrawer?x=200&amp;y=200&amp;h=70&amp;outside=0&amp;outside=1&amp;thickness=5.0&amp;spacing=0.5</dc:source><dc:description>Sliding drawer box

Created with Boxes.py (https://boxes.hackerspace-bamberg.de/)
Command line: boxes SlidingDrawer --FingerJoint_style=rectangular --FingerJoint_surroundingspaces=2.0 --FingerJoint_bottom_lip=0.0 --FingerJoint_edge_width=1.0 --FingerJoint_extra_length=0.0 --FingerJoint_finger=2.0 --FingerJoint_play=0.0 --FingerJoint_space=2.0 --FingerJoint_width=1.0 --Grooved_arc_angle=120 --Grooved_gap=0.1 --Grooved_interleave=0 --Grooved_inverse=0 --Grooved_margin=0.3 --Grooved_style=arc --Grooved_tri_angle=30 --Grooved_width=0.4 --x=200 --y=200 --h=70 --hi=0 --outside=0 --outside=1 --play=0.15 --thickness=5.0 --burn=0.1 --format=svg --labels=0 --labels=1 --reference=100.0 --tabs=0.0 --qr_code=0 --inner_corners=loop --spacing=0.5 --debug=0
Command line short: boxes SlidingDrawer --x=200 --y=200 --h=70 --outside=0 --outside=1 --thickness=5.0 --spacing=0.5
Url: https://boxes.hackerspace-bamberg.de/SlidingDrawer?FingerJoint_style=rectangular&amp;FingerJoint_surroundingspaces=2.0&amp;FingerJoint_bottom_lip=0.0&amp;FingerJoint_edge_width=1.0&amp;FingerJoint_extra_length=0.0&amp;FingerJoint_finger=2.0&amp;FingerJoint_play=0.0&amp;FingerJoint_space=2.0&amp;FingerJoint_width=1.0&amp;Grooved_arc_angle=120&amp;Grooved_gap=0.1&amp;Grooved_interleave=0&amp;Grooved_inverse=0&amp;Grooved_margin=0.3&amp;Grooved_style=arc&amp;Grooved_tri_angle=30&amp;Grooved_width=0.4&amp;x=200&amp;y=200&amp;h=70&amp;hi=0&amp;outside=0&amp;outside=1&amp;play=0.15&amp;thickness=5.0&amp;burn=0.1&amp;format=svg&amp;labels=0&amp;labels=1&amp;reference=100.0&amp;tabs=0.0&amp;qr_code=0&amp;inner_corners=loop&amp;spacing=0.5&amp;debug=0&amp;language=en&amp;render=2
Url short: https://boxes.hackerspace-bamberg.de/SlidingDrawer?x=200&amp;y=200&amp;h=70&amp;outside=0&amp;outside=1&amp;thickness=5.0&amp;spacing=0.5
SettingsUrl: https://boxes.hackerspace-bamberg.de/SlidingDrawer?FingerJoint_style=rectangular&amp;FingerJoint_surroundingspaces=2.0&amp;FingerJoint_bottom_lip=0.0&amp;FingerJoint_edge_width=1.0&amp;FingerJoint_extra_length=0.0&amp;FingerJoint_finger=2.0&amp;FingerJoint_play=0.0&amp;FingerJoint_space=2.0&amp;FingerJoint_width=1.0&amp;Grooved_arc_angle=120&amp;Grooved_gap=0.1&amp;Grooved_interleave=0&amp;Grooved_inverse=0&amp;Grooved_margin=0.3&amp;Grooved_style=arc&amp;Grooved_tri_angle=30&amp;Grooved_width=0.4&amp;x=200&amp;y=200&amp;h=70&amp;hi=0&amp;outside=0&amp;outside=1&amp;play=0.15&amp;thickness=5.0&amp;burn=0.1&amp;format=svg&amp;labels=0&amp;labels=1&amp;reference=100.0&amp;tabs=0.0&amp;qr_code=0&amp;inner_corners=loop&amp;spacing=0.5&amp;debug=0&amp;language=en&amp;render=2
SettingsUrl short: https://boxes.hackerspace-bamberg.de/SlidingDrawer?x=200&amp;y=200&amp;h=70&amp;outside=0&amp;outside=1&amp;thickness=5.0&amp;spacing=0.5
</dc:description></cc:Work></rdf:RDF></metadata><g
     id="p-0"
     style="fill:none;stroke-linecap:round;stroke-linejoin:round;"><path
       d="M 10.100 681.900 H 110.100 V 671.900 H 10.100 V 681.900 Z"
       stroke="rgb(0,0,0)"
       stroke-width="0.20"
       id="path1" /><text
       dominant-baseline="hanging"
       font-size="6px"
       style="font-family: sans-serif ; font-weight: normal; font-style: normal; fill: rgb(255,0,0)"
       text-anchor="middle"
       transform="matrix( 1.000 0.000 0.000 1.000 60.100 673.900 )"
       id="text1">100.0mm, burn:0.10mm</text></g><g
     id="p-1"
     style="fill:none;stroke-linecap:round;stroke-linejoin:round;"><path
       d="M 15.100 669.200 H 29.350 C 29.405 669.200 29.450 669.155 29.450 669.100 V 664.200 C 29.450 664.100 29.350 664.200 29.450 664.200 H 39.250 C 39.350 664.200 39.250 664.100 39.250 664.200 V 669.100 C 39.250 669.155 39.295 669.200 39.350 669.200 H 49.350 C 49.405 669.200 49.450 669.155 49.450 669.100 V 664.200 C 49.450 664.100 49.350 664.200 49.450 664.200 H 59.250 C 59.350 664.200 59.250 664.100 59.250 664.200 V 669.100 C 59.250 669.155 59.295 669.200 59.350 669.200 H 69.350 C 69.405 669.200 69.450 669.155 69.450 669.100 V 664.200 C 69.450 664.100 69.350 664.200 69.450 664.200 H 79.250 C 79.350 664.200 79.250 664.100 79.250 664.200 V 669.100 C 79.250 669.155 79.295 669.200 79.350 669.200 H 89.350 C 89.405 669.200 89.450 669.155 89.450 669.100 V 664.200 C 89.450 664.100 89.350 664.200 89.450 664.200 H 99.250 C 99.350 664.200 99.250 664.100 99.250 664.200 V 669.100 C 99.250 669.155 99.295 669.200 99.350 669.200 H 109.350 C 109.405 669.200 109.450 669.155 109.450 669.100 V 664.200 C 109.450 664.100 109.350 664.200 109.450 664.200 H 119.250 C 119.350 664.200 119.250 664.100 119.250 664.200 V 669.100 C 119.250 669.155 119.295 669.200 119.350 669.200 H 129.350 C 129.405 669.200 129.450 669.155 129.450 669.100 V 664.200 C 129.450 664.100 129.350 664.200 129.450 664.200 H 139.250 C 139.350 664.200 139.250 664.100 139.250 664.200 V 669.100 C 139.250 669.155 139.295 669.200 139.350 669.200 H 149.350 C 149.405 669.200 149.450 669.155 149.450 669.100 V 664.200 C 149.450 664.100 149.350 664.200 149.450 664.200 H 159.250 C 159.350 664.200 159.250 664.100 159.250 664.200 V 669.100 C 159.250 669.155 159.295 669.200 159.350 669.200 H 169.350 C 169.405 669.200 169.450 669.155 169.450 669.100 V 664.200 C 169.450 664.100 169.350 664.200 169.450 664.200 H 179.250 C 179.350 664.200 179.250 664.100 179.250 664.200 V 669.100 C 179.250 669.155 179.295 669.200 179.350 669.200 H 193.600 H 198.600 C 198.655 669.200 198.700 669.155 198.700 669.100 V 664.100 V 652.350 C 198.700 652.295 198.655 652.250 198.600 652.250 H 193.700 C 193.600 652.250 193.700 652.350 193.700 652.250 V 642.450 C 193.700 642.350 193.600 642.450 193.700 642.450 H 198.600 C 198.655 642.450 198.700 642.405 198.700 642.350 V 632.350 C 198.700 632.295 198.655 632.250 198.600 632.250 H 193.700 C 193.600 632.250 193.700 632.350 193.700 632.250 V 622.450 C 193.700 622.350 193.600 622.450 193.700 622.450 H 198.600 C 198.655 622.450 198.700 622.405 198.700 622.350 V 610.600 C 198.700 610.545 198.655 610.500 198.600 610.500 H 193.600 H 15.100 H 10.100 C 10.045 610.500 10.000 610.545 10.000 610.600 V 622.350 C 10.000 622.405 10.045 622.450 10.100 622.450 H 15.000 C 15.100 622.450 15.000 622.350 15.000 622.450 V 632.250 C 15.000 632.350 15.100 632.250 15.000 632.250 H 10.100 C 10.045 632.250 10.000 632.295 10.000 632.350 V 642.350 C 10.000 642.405 10.045 642.450 10.100 642.450 H 15.000 C 15.100 642.450 15.000 642.350 15.000 642.450 V 652.250 C 15.000 652.350 15.100 652.250 15.000 652.250 H 10.100 C 10.045 652.250 10.000 652.295 10.000 652.350 V 664.100 V 669.100 C 10.000 669.155 10.045 669.200 10.100 669.200 H 15.100 Z"
       stroke="rgb(0,0,0)"
       stroke-width="0.20"
       id="path2"
       style="stroke:#ff0000;stroke-opacity:1;stroke-width:0.1;stroke-dasharray:none" /><text
       dominant-baseline="hanging"
       font-size="4px"
       style="font-style:normal;font-weight:normal;font-family:sans-serif;fill:#ff0000"
       text-anchor="middle"
       transform="translate(104.35,637.95)"
       id="text2" /></g><g
     id="p-2"
     style="fill:none;stroke-linecap:round;stroke-linejoin:round;"><path
       d="M 206.300 664.200 H 222.950 C 223.050 664.200 222.950 664.100 222.950 664.200 V 669.100 C 222.950 669.155 222.995 669.200 223.050 669.200 H 233.050 C 233.105 669.200 233.150 669.155 233.150 669.100 V 664.200 C 233.150 664.100 233.050 664.200 233.150 664.200 H 242.950 C 243.050 664.200 242.950 664.100 242.950 664.200 V 669.100 C 242.950 669.155 242.995 669.200 243.050 669.200 H 253.050 C 253.105 669.200 253.150 669.155 253.150 669.100 V 664.200 C 253.150 664.100 253.050 664.200 253.150 664.200 H 262.950 C 263.050 664.200 262.950 664.100 262.950 664.200 V 669.100 C 262.950 669.155 262.995 669.200 263.050 669.200 H 273.050 C 273.105 669.200 273.150 669.155 273.150 669.100 V 664.200 C 273.150 664.100 273.050 664.200 273.150 664.200 H 282.950 C 283.050 664.200 282.950 664.100 282.950 664.200 V 669.100 C 282.950 669.155 282.995 669.200 283.050 669.200 H 293.050 C 293.105 669.200 293.150 669.155 293.150 669.100 V 664.200 C 293.150 664.100 293.050 664.200 293.150 664.200 H 302.950 C 303.050 664.200 302.950 664.100 302.950 664.200 V 669.100 C 302.950 669.155 302.995 669.200 303.050 669.200 H 313.050 C 313.105 669.200 313.150 669.155 313.150 669.100 V 664.200 C 313.150 664.100 313.050 664.200 313.150 664.200 H 322.950 C 323.050 664.200 322.950 664.100 322.950 664.200 V 669.100 C 322.950 669.155 322.995 669.200 323.050 669.200 H 333.050 C 333.105 669.200 333.150 669.155 333.150 669.100 V 664.200 C 333.150 664.100 333.050 664.200 333.150 664.200 H 342.950 C 343.050 664.200 342.950 664.100 342.950 664.200 V 669.100 C 342.950 669.155 342.995 669.200 343.050 669.200 H 353.050 C 353.105 669.200 353.150 669.155 353.150 669.100 V 664.200 C 353.150 664.100 353.050 664.200 353.150 664.200 H 362.950 C 363.050 664.200 362.950 664.100 362.950 664.200 V 669.100 C 362.950 669.155 362.995 669.200 363.050 669.200 H 373.050 C 373.105 669.200 373.150 669.155 373.150 669.100 V 664.200 C 373.150 664.100 373.050 664.200 373.150 664.200 H 389.800 C 389.855 664.200 389.900 664.155 389.900 664.100 V 652.450 C 389.900 652.350 389.800 652.450 389.900 652.450 H 394.800 C 394.855 652.450 394.900 652.405 394.900 652.350 V 642.350 C 394.900 642.295 394.855 642.250 394.800 642.250 H 389.900 C 389.800 642.250 389.900 642.350 389.900 642.250 V 632.450 C 389.900 632.350 389.800 632.450 389.900 632.450 H 394.800 C 394.855 632.450 394.900 632.405 394.900 632.350 V 622.350 C 394.900 622.295 394.855 622.250 394.800 622.250 H 389.900 C 389.800 622.250 389.900 622.350 389.900 622.250 V 610.600 C 389.900 610.545 389.855 610.500 389.800 610.500 H 206.300 C 206.245 610.500 206.200 610.545 206.200 610.600 V 622.250 C 206.200 622.350 206.300 622.250 206.200 622.250 H 201.300 C 201.245 622.250 201.200 622.295 201.200 622.350 V 632.350 C 201.200 632.405 201.245 632.450 201.300 632.450 H 206.200 C 206.300 632.450 206.200 632.350 206.200 632.450 V 642.250 C 206.200 642.350 206.300 642.250 206.200 642.250 H 201.300 C 201.245 642.250 201.200 642.295 201.200 642.350 V 652.350 C 201.200 652.405 201.245 652.450 201.300 652.450 H 206.200 C 206.300 652.450 206.200 652.350 206.200 652.450 V 664.100 C 206.200 664.155 206.245 664.200 206.300 664.200 Z"
       stroke="rgb(0,0,0)"
       stroke-width="0.20"
       id="path3"
       style="stroke-width:0.1;stroke-dasharray:none;stroke:#ff0000;stroke-opacity:1" /><text
       dominant-baseline="hanging"
       font-size="4px"
       style="font-style:normal;font-weight:normal;font-family:sans-serif;fill:#ff0000"
       text-anchor="middle"
       transform="translate(298.05,637.95)"
       id="text3" /></g><g
     id="p-3"
     style="fill:none;stroke-linecap:round;stroke-linejoin:round;"><path
       d="M 206.300 603.000 H 222.950 C 223.050 603.000 222.950 602.900 222.950 603.000 V 607.900 C 222.950 607.955 222.995 608.000 223.050 608.000 H 233.050 C 233.105 608.000 233.150 607.955 233.150 607.900 V 603.000 C 233.150 602.900 233.050 603.000 233.150 603.000 H 242.950 C 243.050 603.000 242.950 602.900 242.950 603.000 V 607.900 C 242.950 607.955 242.995 608.000 243.050 608.000 H 253.050 C 253.105 608.000 253.150 607.955 253.150 607.900 V 603.000 C 253.150 602.900 253.050 603.000 253.150 603.000 H 262.950 C 263.050 603.000 262.950 602.900 262.950 603.000 V 607.900 C 262.950 607.955 262.995 608.000 263.050 608.000 H 273.050 C 273.105 608.000 273.150 607.955 273.150 607.900 V 603.000 C 273.150 602.900 273.050 603.000 273.150 603.000 H 282.950 C 283.050 603.000 282.950 602.900 282.950 603.000 V 607.900 C 282.950 607.955 282.995 608.000 283.050 608.000 H 293.050 C 293.105 608.000 293.150 607.955 293.150 607.900 V 603.000 C 293.150 602.900 293.050 603.000 293.150 603.000 H 302.950 C 303.050 603.000 302.950 602.900 302.950 603.000 V 607.900 C 302.950 607.955 302.995 608.000 303.050 608.000 H 313.050 C 313.105 608.000 313.150 607.955 313.150 607.900 V 603.000 C 313.150 602.900 313.050 603.000 313.150 603.000 H 322.950 C 323.050 603.000 322.950 602.900 322.950 603.000 V 607.900 C 322.950 607.955 322.995 608.000 323.050 608.000 H 333.050 C 333.105 608.000 333.150 607.955 333.150 607.900 V 603.000 C 333.150 602.900 333.050 603.000 333.150 603.000 H 342.950 C 343.050 603.000 342.950 602.900 342.950 603.000 V 607.900 C 342.950 607.955 342.995 608.000 343.050 608.000 H 353.050 C 353.105 608.000 353.150 607.955 353.150 607.900 V 603.000 C 353.150 602.900 353.050 603.000 353.150 603.000 H 362.950 C 363.050 603.000 362.950 602.900 362.950 603.000 V 607.900 C 362.950 607.955 362.995 608.000 363.050 608.000 H 373.050 C 373.105 608.000 373.150 607.955 373.150 607.900 V 603.000 C 373.150 602.900 373.050 603.000 373.150 603.000 H 389.800 C 389.855 603.000 389.900 602.955 389.900 602.900 V 591.250 C 389.900 591.150 389.800 591.250 389.900 591.250 H 394.800 C 394.855 591.250 394.900 591.205 394.900 591.150 V 581.150 C 394.900 581.095 394.855 581.050 394.800 581.050 H 389.900 C 389.800 581.050 389.900 581.150 389.900 581.050 V 571.250 C 389.900 571.150 389.800 571.250 389.900 571.250 H 394.800 C 394.855 571.250 394.900 571.205 394.900 571.150 V 561.150 C 394.900 561.095 394.855 561.050 394.800 561.050 H 389.900 C 389.800 561.050 389.900 561.150 389.900 561.050 V 549.400 C 389.900 549.345 389.855 549.300 389.800 549.300 H 206.300 C 206.245 549.300 206.200 549.345 206.200 549.400 V 561.050 C 206.200 561.150 206.300 561.050 206.200 561.050 H 201.300 C 201.245 561.050 201.200 561.095 201.200 561.150 V 571.150 C 201.200 571.205 201.245 571.250 201.300 571.250 H 206.200 C 206.300 571.250 206.200 571.150 206.200 571.250 V 581.050 C 206.200 581.150 206.300 581.050 206.200 581.050 H 201.300 C 201.245 581.050 201.200 581.095 201.200 581.150 V 591.150 C 201.200 591.205 201.245 591.250 201.300 591.250 H 206.200 C 206.300 591.250 206.200 591.150 206.200 591.250 V 602.900 C 206.200 602.955 206.245 603.000 206.300 603.000 Z"
       stroke="rgb(0,0,0)"
       stroke-width="0.20"
       id="path4"
       style="stroke-width:0.1;stroke-dasharray:none;stroke:#ff0000;stroke-opacity:1" /><text
       dominant-baseline="hanging"
       font-size="4px"
       style="font-style:normal;font-weight:normal;font-family:sans-serif;fill:#ff0000"
       text-anchor="middle"
       transform="translate(298.05,576.75)"
       id="text4" /></g><g
     id="p-4"
     style="fill:none;stroke-linecap:round;stroke-linejoin:round;"><path
       d="M 15.100 608.000 H 29.350 C 29.405 608.000 29.450 607.955 29.450 607.900 V 603.000 C 29.450 602.900 29.350 603.000 29.450 603.000 H 39.250 C 39.350 603.000 39.250 602.900 39.250 603.000 V 607.900 C 39.250 607.955 39.295 608.000 39.350 608.000 H 49.350 C 49.405 608.000 49.450 607.955 49.450 607.900 V 603.000 C 49.450 602.900 49.350 603.000 49.450 603.000 H 59.250 C 59.350 603.000 59.250 602.900 59.250 603.000 V 607.900 C 59.250 607.955 59.295 608.000 59.350 608.000 H 69.350 C 69.405 608.000 69.450 607.955 69.450 607.900 V 603.000 C 69.450 602.900 69.350 603.000 69.450 603.000 H 79.250 C 79.350 603.000 79.250 602.900 79.250 603.000 V 607.900 C 79.250 607.955 79.295 608.000 79.350 608.000 H 89.350 C 89.405 608.000 89.450 607.955 89.450 607.900 V 603.000 C 89.450 602.900 89.350 603.000 89.450 603.000 H 99.250 C 99.350 603.000 99.250 602.900 99.250 603.000 V 607.900 C 99.250 607.955 99.295 608.000 99.350 608.000 H 109.350 C 109.405 608.000 109.450 607.955 109.450 607.900 V 603.000 C 109.450 602.900 109.350 603.000 109.450 603.000 H 119.250 C 119.350 603.000 119.250 602.900 119.250 603.000 V 607.900 C 119.250 607.955 119.295 608.000 119.350 608.000 H 129.350 C 129.405 608.000 129.450 607.955 129.450 607.900 V 603.000 C 129.450 602.900 129.350 603.000 129.450 603.000 H 139.250 C 139.350 603.000 139.250 602.900 139.250 603.000 V 607.900 C 139.250 607.955 139.295 608.000 139.350 608.000 H 149.350 C 149.405 608.000 149.450 607.955 149.450 607.900 V 603.000 C 149.450 602.900 149.350 603.000 149.450 603.000 H 159.250 C 159.350 603.000 159.250 602.900 159.250 603.000 V 607.900 C 159.250 607.955 159.295 608.000 159.350 608.000 H 169.350 C 169.405 608.000 169.450 607.955 169.450 607.900 V 603.000 C 169.450 602.900 169.350 603.000 169.450 603.000 H 179.250 C 179.350 603.000 179.250 602.900 179.250 603.000 V 607.900 C 179.250 607.955 179.295 608.000 179.350 608.000 H 193.600 H 198.600 C 198.655 608.000 198.700 607.955 198.700 607.900 V 602.900 V 591.150 C 198.700 591.095 198.655 591.050 198.600 591.050 H 193.700 C 193.600 591.050 193.700 591.150 193.700 591.050 V 581.250 C 193.700 581.150 193.600 581.250 193.700 581.250 H 198.600 C 198.655 581.250 198.700 581.205 198.700 581.150 V 571.150 C 198.700 571.095 198.655 571.050 198.600 571.050 H 193.700 C 193.600 571.050 193.700 571.150 193.700 571.050 V 561.250 C 193.700 561.150 193.600 561.250 193.700 561.250 H 198.600 C 198.655 561.250 198.700 561.205 198.700 561.150 V 549.400 C 198.700 549.345 198.655 549.300 198.600 549.300 H 193.600 H 140.050 C 140.014 549.300 139.981 549.319 139.963 549.350 C 136.354 555.601 131.163 560.793 124.911 564.402 C 118.660 568.011 111.569 569.911 104.350 569.911 C 97.131 569.911 90.040 568.011 83.789 564.402 C 77.537 560.793 72.346 555.601 68.737 549.350 C 68.719 549.319 68.686 549.300 68.650 549.300 H 15.100 H 10.100 C 10.045 549.300 10.000 549.345 10.000 549.400 V 561.150 C 10.000 561.205 10.045 561.250 10.100 561.250 H 15.000 C 15.100 561.250 15.000 561.150 15.000 561.250 V 571.050 C 15.000 571.150 15.100 571.050 15.000 571.050 H 10.100 C 10.045 571.050 10.000 571.095 10.000 571.150 V 581.150 C 10.000 581.205 10.045 581.250 10.100 581.250 H 15.000 C 15.100 581.250 15.000 581.150 15.000 581.250 V 591.050 C 15.000 591.150 15.100 591.050 15.000 591.050 H 10.100 C 10.045 591.050 10.000 591.095 10.000 591.150 V 602.900 V 607.900 C 10.000 607.955 10.045 608.000 10.100 608.000 H 15.100 Z"
       stroke="rgb(0,0,0)"
       stroke-width="0.20"
       id="path5"
       style="stroke:#ff0000;stroke-opacity:1;stroke-width:0.1;stroke-dasharray:none" /><text
       dominant-baseline="hanging"
       font-size="4px"
       style="font-style:normal;font-weight:normal;font-family:sans-serif;fill:#ff0000"
       text-anchor="middle"
       transform="translate(104.35,576.75)"
       id="text5" /></g><g
     id="p-5"
     style="fill:none;stroke-linecap:round;stroke-linejoin:round;"><path
       d="M 15.100 546.800 H 31.850 C 31.905 546.800 31.950 546.755 31.950 546.700 V 541.800 C 31.950 541.700 31.850 541.800 31.950 541.800 H 41.750 C 41.850 541.800 41.750 541.700 41.750 541.800 V 546.700 C 41.750 546.755 41.795 546.800 41.850 546.800 H 51.850 C 51.905 546.800 51.950 546.755 51.950 546.700 V 541.800 C 51.950 541.700 51.850 541.800 51.950 541.800 H 61.750 C 61.850 541.800 61.750 541.700 61.750 541.800 V 546.700 C 61.750 546.755 61.795 546.800 61.850 546.800 H 71.850 C 71.905 546.800 71.950 546.755 71.950 546.700 V 541.800 C 71.950 541.700 71.850 541.800 71.950 541.800 H 81.750 C 81.850 541.800 81.750 541.700 81.750 541.800 V 546.700 C 81.750 546.755 81.795 546.800 81.850 546.800 H 91.850 C 91.905 546.800 91.950 546.755 91.950 546.700 V 541.800 C 91.950 541.700 91.850 541.800 91.950 541.800 H 101.750 C 101.850 541.800 101.750 541.700 101.750 541.800 V 546.700 C 101.750 546.755 101.795 546.800 101.850 546.800 H 111.850 C 111.905 546.800 111.950 546.755 111.950 546.700 V 541.800 C 111.950 541.700 111.850 541.800 111.950 541.800 H 121.750 C 121.850 541.800 121.750 541.700 121.750 541.800 V 546.700 C 121.750 546.755 121.795 546.800 121.850 546.800 H 131.850 C 131.905 546.800 131.950 546.755 131.950 546.700 V 541.800 C 131.950 541.700 131.850 541.800 131.950 541.800 H 141.750 C 141.850 541.800 141.750 541.700 141.750 541.800 V 546.700 C 141.750 546.755 141.795 546.800 141.850 546.800 H 151.850 C 151.905 546.800 151.950 546.755 151.950 546.700 V 541.800 C 151.950 541.700 151.850 541.800 151.950 541.800 H 161.750 C 161.850 541.800 161.750 541.700 161.750 541.800 V 546.700 C 161.750 546.755 161.795 546.800 161.850 546.800 H 171.850 C 171.905 546.800 171.950 546.755 171.950 546.700 V 541.800 C 171.950 541.700 171.850 541.800 171.950 541.800 H 181.750 C 181.850 541.800 181.750 541.700 181.750 541.800 V 546.700 C 181.750 546.755 181.795 546.800 181.850 546.800 H 198.600 C 198.655 546.800 198.700 546.755 198.700 546.700 V 541.700 V 527.550 C 198.700 527.450 198.600 527.550 198.700 527.550 H 203.600 C 203.655 527.550 203.700 527.505 203.700 527.450 V 517.450 C 203.700 517.395 203.655 517.350 203.600 517.350 H 198.700 C 198.600 517.350 198.700 517.450 198.700 517.350 V 507.550 C 198.700 507.450 198.600 507.550 198.700 507.550 H 203.600 C 203.655 507.550 203.700 507.505 203.700 507.450 V 497.450 C 203.700 497.395 203.655 497.350 203.600 497.350 H 198.700 C 198.600 497.350 198.700 497.450 198.700 497.350 V 487.550 C 198.700 487.450 198.600 487.550 198.700 487.550 H 203.600 C 203.655 487.550 203.700 487.505 203.700 487.450 V 477.450 C 203.700 477.395 203.655 477.350 203.600 477.350 H 198.700 C 198.600 477.350 198.700 477.450 198.700 477.350 V 467.550 C 198.700 467.450 198.600 467.550 198.700 467.550 H 203.600 C 203.655 467.550 203.700 467.505 203.700 467.450 V 457.450 C 203.700 457.395 203.655 457.350 203.600 457.350 H 198.700 C 198.600 457.350 198.700 457.450 198.700 457.350 V 447.550 C 198.700 447.450 198.600 447.550 198.700 447.550 H 203.600 C 203.655 447.550 203.700 447.505 203.700 447.450 V 437.450 C 203.700 437.395 203.655 437.350 203.600 437.350 H 198.700 C 198.600 437.350 198.700 437.450 198.700 437.350 V 427.550 C 198.700 427.450 198.600 427.550 198.700 427.550 H 203.600 C 203.655 427.550 203.700 427.505 203.700 427.450 V 417.450 C 203.700 417.395 203.655 417.350 203.600 417.350 H 198.700 C 198.600 417.350 198.700 417.450 198.700 417.350 V 407.550 C 198.700 407.450 198.600 407.550 198.700 407.550 H 203.600 C 203.655 407.550 203.700 407.505 203.700 407.450 V 397.450 C 203.700 397.395 203.655 397.350 203.600 397.350 H 198.700 C 198.600 397.350 198.700 397.450 198.700 397.350 V 387.550 C 198.700 387.450 198.600 387.550 198.700 387.550 H 203.600 C 203.655 387.550 203.700 387.505 203.700 387.450 V 377.450 C 203.700 377.395 203.655 377.350 203.600 377.350 H 198.700 C 198.600 377.350 198.700 377.450 198.700 377.350 V 363.200 V 358.200 C 198.700 358.145 198.655 358.100 198.600 358.100 H 181.850 C 181.795 358.100 181.750 358.145 181.750 358.200 V 363.100 C 181.750 363.200 181.850 363.100 181.750 363.100 H 171.950 C 171.850 363.100 171.950 363.200 171.950 363.100 V 358.200 C 171.950 358.145 171.905 358.100 171.850 358.100 H 161.850 C 161.795 358.100 161.750 358.145 161.750 358.200 V 363.100 C 161.750 363.200 161.850 363.100 161.750 363.100 H 151.950 C 151.850 363.100 151.950 363.200 151.950 363.100 V 358.200 C 151.950 358.145 151.905 358.100 151.850 358.100 H 141.850 C 141.795 358.100 141.750 358.145 141.750 358.200 V 363.100 C 141.750 363.200 141.850 363.100 141.750 363.100 H 131.950 C 131.850 363.100 131.950 363.200 131.950 363.100 V 358.200 C 131.950 358.145 131.905 358.100 131.850 358.100 H 121.850 C 121.795 358.100 121.750 358.145 121.750 358.200 V 363.100 C 121.750 363.200 121.850 363.100 121.750 363.100 H 111.950 C 111.850 363.100 111.950 363.200 111.950 363.100 V 358.200 C 111.950 358.145 111.905 358.100 111.850 358.100 H 101.850 C 101.795 358.100 101.750 358.145 101.750 358.200 V 363.100 C 101.750 363.200 101.850 363.100 101.750 363.100 H 91.950 C 91.850 363.100 91.950 363.200 91.950 363.100 V 358.200 C 91.950 358.145 91.905 358.100 91.850 358.100 H 81.850 C 81.795 358.100 81.750 358.145 81.750 358.200 V 363.100 C 81.750 363.200 81.850 363.100 81.750 363.100 H 71.950 C 71.850 363.100 71.950 363.200 71.950 363.100 V 358.200 C 71.950 358.145 71.905 358.100 71.850 358.100 H 61.850 C 61.795 358.100 61.750 358.145 61.750 358.200 V 363.100 C 61.750 363.200 61.850 363.100 61.750 363.100 H 51.950 C 51.850 363.100 51.950 363.200 51.950 363.100 V 358.200 C 51.950 358.145 51.905 358.100 51.850 358.100 H 41.850 C 41.795 358.100 41.750 358.145 41.750 358.200 V 363.100 C 41.750 363.200 41.850 363.100 41.750 363.100 H 31.950 C 31.850 363.100 31.950 363.200 31.950 363.100 V 358.200 C 31.950 358.145 31.905 358.100 31.850 358.100 H 15.100 C 15.045 358.100 15.000 358.145 15.000 358.200 V 363.200 V 377.350 C 15.000 377.450 15.100 377.350 15.000 377.350 H 10.100 C 10.045 377.350 10.000 377.395 10.000 377.450 V 387.450 C 10.000 387.505 10.045 387.550 10.100 387.550 H 15.000 C 15.100 387.550 15.000 387.450 15.000 387.550 V 397.350 C 15.000 397.450 15.100 397.350 15.000 397.350 H 10.100 C 10.045 397.350 10.000 397.395 10.000 397.450 V 407.450 C 10.000 407.505 10.045 407.550 10.100 407.550 H 15.000 C 15.100 407.550 15.000 407.450 15.000 407.550 V 417.350 C 15.000 417.450 15.100 417.350 15.000 417.350 H 10.100 C 10.045 417.350 10.000 417.395 10.000 417.450 V 427.450 C 10.000 427.505 10.045 427.550 10.100 427.550 H 15.000 C 15.100 427.550 15.000 427.450 15.000 427.550 V 437.350 C 15.000 437.450 15.100 437.350 15.000 437.350 H 10.100 C 10.045 437.350 10.000 437.395 10.000 437.450 V 447.450 C 10.000 447.505 10.045 447.550 10.100 447.550 H 15.000 C 15.100 447.550 15.000 447.450 15.000 447.550 V 457.350 C 15.000 457.450 15.100 457.350 15.000 457.350 H 10.100 C 10.045 457.350 10.000 457.395 10.000 457.450 V 467.450 C 10.000 467.505 10.045 467.550 10.100 467.550 H 15.000 C 15.100 467.550 15.000 467.450 15.000 467.550 V 477.350 C 15.000 477.450 15.100 477.350 15.000 477.350 H 10.100 C 10.045 477.350 10.000 477.395 10.000 477.450 V 487.450 C 10.000 487.505 10.045 487.550 10.100 487.550 H 15.000 C 15.100 487.550 15.000 487.450 15.000 487.550 V 497.350 C 15.000 497.450 15.100 497.350 15.000 497.350 H 10.100 C 10.045 497.350 10.000 497.395 10.000 497.450 V 507.450 C 10.000 507.505 10.045 507.550 10.100 507.550 H 15.000 C 15.100 507.550 15.000 507.450 15.000 507.550 V 517.350 C 15.000 517.450 15.100 517.350 15.000 517.350 H 10.100 C 10.045 517.350 10.000 517.395 10.000 517.450 V 527.450 C 10.000 527.505 10.045 527.550 10.100 527.550 H 15.000 C 15.100 527.550 15.000 527.450 15.000 527.550 V 541.700 V 546.700 C 15.000 546.755 15.045 546.800 15.100 546.800 Z"
       stroke="rgb(0,0,0)"
       stroke-width="0.20"
       id="path6"
       style="stroke:#ff0000;stroke-opacity:1;stroke-width:0.1;stroke-dasharray:none" /><text
       dominant-baseline="hanging"
       font-size="4px"
       style="font-style:normal;font-weight:normal;font-family:sans-serif;fill:#ff0000"
       text-anchor="middle"
       transform="translate(106.85,450.55)"
       id="text6" /></g><g
     id="p-6"
     style="fill:none;stroke-linecap:round;stroke-linejoin:round;"><path
       d="M 10.100 355.600 H 22.600 C 22.655 355.600 22.700 355.555 22.700 355.500 V 350.600 C 22.700 350.500 22.600 350.600 22.700 350.600 H 32.500 C 32.600 350.600 32.500 350.500 32.500 350.600 V 355.500 C 32.500 355.555 32.545 355.600 32.600 355.600 H 42.600 C 42.655 355.600 42.700 355.555 42.700 355.500 V 350.600 C 42.700 350.500 42.600 350.600 42.700 350.600 H 52.500 C 52.600 350.600 52.500 350.500 52.500 350.600 V 355.500 C 52.500 355.555 52.545 355.600 52.600 355.600 H 62.600 C 62.655 355.600 62.700 355.555 62.700 355.500 V 350.600 C 62.700 350.500 62.600 350.600 62.700 350.600 H 72.500 C 72.600 350.600 72.500 350.500 72.500 350.600 V 355.500 C 72.500 355.555 72.545 355.600 72.600 355.600 H 82.600 C 82.655 355.600 82.700 355.555 82.700 355.500 V 350.600 C 82.700 350.500 82.600 350.600 82.700 350.600 H 92.500 C 92.600 350.600 92.500 350.500 92.500 350.600 V 355.500 C 92.500 355.555 92.545 355.600 92.600 355.600 H 102.600 C 102.655 355.600 102.700 355.555 102.700 355.500 V 350.600 C 102.700 350.500 102.600 350.600 102.700 350.600 H 112.500 C 112.600 350.600 112.500 350.500 112.500 350.600 V 355.500 C 112.500 355.555 112.545 355.600 112.600 355.600 H 122.600 C 122.655 355.600 122.700 355.555 122.700 355.500 V 350.600 C 122.700 350.500 122.600 350.600 122.700 350.600 H 132.500 C 132.600 350.600 132.500 350.500 132.500 350.600 V 355.500 C 132.500 355.555 132.545 355.600 132.600 355.600 H 142.600 C 142.655 355.600 142.700 355.555 142.700 355.500 V 350.600 C 142.700 350.500 142.600 350.600 142.700 350.600 H 152.500 C 152.600 350.600 152.500 350.500 152.500 350.600 V 355.500 C 152.500 355.555 152.545 355.600 152.600 355.600 H 162.600 C 162.655 355.600 162.700 355.555 162.700 355.500 V 350.600 C 162.700 350.500 162.600 350.600 162.700 350.600 H 172.500 C 172.600 350.600 172.500 350.500 172.500 350.600 V 355.500 C 172.500 355.555 172.545 355.600 172.600 355.600 H 182.600 C 182.655 355.600 182.700 355.555 182.700 355.500 V 350.600 C 182.700 350.500 182.600 350.600 182.700 350.600 H 192.500 C 192.600 350.600 192.500 350.500 192.500 350.600 V 355.500 C 192.500 355.555 192.545 355.600 192.600 355.600 H 205.100 H 210.100 C 210.155 355.600 210.200 355.555 210.200 355.500 V 350.500 V 340.500 C 210.200 340.445 210.155 340.400 210.100 340.400 H 205.200 C 205.100 340.400 205.200 340.500 205.200 340.400 V 330.600 C 205.200 330.500 205.100 330.600 205.200 330.600 H 210.100 C 210.155 330.600 210.200 330.555 210.200 330.500 V 320.500 C 210.200 320.445 210.155 320.400 210.100 320.400 H 205.200 C 205.100 320.400 205.200 320.500 205.200 320.400 V 310.600 C 205.200 310.500 205.100 310.600 205.200 310.600 H 210.100 C 210.155 310.600 210.200 310.555 210.200 310.500 V 300.500 C 210.200 300.445 210.155 300.400 210.100 300.400 H 205.200 C 205.100 300.400 205.200 300.500 205.200 300.400 V 290.600 C 205.200 290.500 205.100 290.600 205.200 290.600 H 210.100 C 210.155 290.600 210.200 290.555 210.200 290.500 V 280.500 C 210.200 280.445 210.155 280.400 210.100 280.400 H 205.200 C 205.100 280.400 205.200 280.500 205.200 280.400 V 270.600 C 205.200 270.500 205.100 270.600 205.200 270.600 H 210.100 C 210.155 270.600 210.200 270.555 210.200 270.500 V 260.500 C 210.200 260.445 210.155 260.400 210.100 260.400 H 205.200 C 205.100 260.400 205.200 260.500 205.200 260.400 V 250.600 C 205.200 250.500 205.100 250.600 205.200 250.600 H 210.100 C 210.155 250.600 210.200 250.555 210.200 250.500 V 240.500 C 210.200 240.445 210.155 240.400 210.100 240.400 H 205.200 C 205.100 240.400 205.200 240.500 205.200 240.400 V 230.600 C 205.200 230.500 205.100 230.600 205.200 230.600 H 210.100 C 210.155 230.600 210.200 230.555 210.200 230.500 V 220.500 C 210.200 220.445 210.155 220.400 210.100 220.400 H 205.200 C 205.100 220.400 205.200 220.500 205.200 220.400 V 210.600 C 205.200 210.500 205.100 210.600 205.200 210.600 H 210.100 C 210.155 210.600 210.200 210.555 210.200 210.500 V 200.500 C 210.200 200.445 210.155 200.400 210.100 200.400 H 205.200 C 205.100 200.400 205.200 200.500 205.200 200.400 V 190.600 C 205.200 190.500 205.100 190.600 205.200 190.600 H 210.100 C 210.155 190.600 210.200 190.555 210.200 190.500 V 180.500 C 210.200 180.445 210.155 180.400 210.100 180.400 H 205.200 C 205.100 180.400 205.200 180.500 205.200 180.400 V 170.600 C 205.200 170.500 205.100 170.600 205.200 170.600 H 210.100 C 210.155 170.600 210.200 170.555 210.200 170.500 V 160.500 V 155.500 C 210.200 155.445 210.155 155.400 210.100 155.400 H 205.100 H 192.600 C 192.545 155.400 192.500 155.445 192.500 155.500 V 160.400 C 192.500 160.500 192.600 160.400 192.500 160.400 H 182.700 C 182.600 160.400 182.700 160.500 182.700 160.400 V 155.500 C 182.700 155.445 182.655 155.400 182.600 155.400 H 172.600 C 172.545 155.400 172.500 155.445 172.500 155.500 V 160.400 C 172.500 160.500 172.600 160.400 172.500 160.400 H 162.700 C 162.600 160.400 162.700 160.500 162.700 160.400 V 155.500 C 162.700 155.445 162.655 155.400 162.600 155.400 H 152.600 C 152.545 155.400 152.500 155.445 152.500 155.500 V 160.400 C 152.500 160.500 152.600 160.400 152.500 160.400 H 142.700 C 142.600 160.400 142.700 160.500 142.700 160.400 V 155.500 C 142.700 155.445 142.655 155.400 142.600 155.400 H 132.600 C 132.545 155.400 132.500 155.445 132.500 155.500 V 160.400 C 132.500 160.500 132.600 160.400 132.500 160.400 H 122.700 C 122.600 160.400 122.700 160.500 122.700 160.400 V 155.500 C 122.700 155.445 122.655 155.400 122.600 155.400 H 112.600 C 112.545 155.400 112.500 155.445 112.500 155.500 V 160.400 C 112.500 160.500 112.600 160.400 112.500 160.400 H 102.700 C 102.600 160.400 102.700 160.500 102.700 160.400 V 155.500 C 102.700 155.445 102.655 155.400 102.600 155.400 H 92.600 C 92.545 155.400 92.500 155.445 92.500 155.500 V 160.400 C 92.500 160.500 92.600 160.400 92.500 160.400 H 82.700 C 82.600 160.400 82.700 160.500 82.700 160.400 V 155.500 C 82.700 155.445 82.655 155.400 82.600 155.400 H 72.600 C 72.545 155.400 72.500 155.445 72.500 155.500 V 160.400 C 72.500 160.500 72.600 160.400 72.500 160.400 H 62.700 C 62.600 160.400 62.700 160.500 62.700 160.400 V 155.500 C 62.700 155.445 62.655 155.400 62.600 155.400 H 52.600 C 52.545 155.400 52.500 155.445 52.500 155.500 V 160.400 C 52.500 160.500 52.600 160.400 52.500 160.400 H 42.700 C 42.600 160.400 42.700 160.500 42.700 160.400 V 155.500 C 42.700 155.445 42.655 155.400 42.600 155.400 H 32.600 C 32.545 155.400 32.500 155.445 32.500 155.500 V 160.400 C 32.500 160.500 32.600 160.400 32.500 160.400 H 22.700 C 22.600 160.400 22.700 160.500 22.700 160.400 V 155.500 C 22.700 155.445 22.655 155.400 22.600 155.400 H 10.100 C 10.045 155.400 10.000 155.445 10.000 155.500 V 160.500 V 350.500 V 355.500 C 10.000 355.555 10.045 355.600 10.100 355.600 Z"
       stroke="rgb(0,0,0)"
       stroke-width="0.20"
       id="path7"
       style="stroke:#ff0000;stroke-opacity:1;stroke-width:0.1;stroke-dasharray:none" /><text
       dominant-baseline="hanging"
       font-size="4px"
       style="font-style:normal;font-weight:normal;font-family:sans-serif;fill:#ff0000"
       text-anchor="middle"
       transform="translate(110.1,253.6)"
       id="text7" /><rect
       style="opacity:1;fill:none;stroke:#ff0000;stroke-width:0.1;stroke-dasharray:none;stroke-opacity:1"
       id="rect11"
       width="179.92198"
       height="7.921989"
       x="220.63739"
       y="186.13086"
       ry="3.9609945" /><rect
       style="opacity:1;fill:none;stroke:#ff0000;stroke-width:0.1;stroke-linecap:round;stroke-linejoin:round;stroke-dasharray:none;stroke-opacity:1"
       id="rect11-9"
       width="179.92198"
       height="7.921989"
       x="220.63739"
       y="206.61325"
       ry="3.9609945" /><rect
       style="opacity:1;fill:none;stroke:#ff0000;stroke-width:0.1;stroke-linecap:round;stroke-linejoin:round;stroke-dasharray:none;stroke-opacity:1"
       id="rect11-9-8"
       width="179.92198"
       height="7.921989"
       x="220.63739"
       y="227.09564"
       ry="3.9609945" /><rect
       style="opacity:1;fill:none;stroke:#ff0000;stroke-width:0.1;stroke-linecap:round;stroke-linejoin:round;stroke-dasharray:none;stroke-opacity:1"
       id="rect11-9-2"
       width="179.92198"
       height="7.921989"
       x="220.63739"
       y="247.57802"
       ry="3.9609945" /><rect
       style="opacity:1;fill:none;stroke:#ff0000;stroke-width:0.1;stroke-linecap:round;stroke-linejoin:round;stroke-dasharray:none;stroke-opacity:1"
       id="rect11-9-5"
       width="179.92198"
       height="7.921989"
       x="220.63739"
       y="268.06039"
       ry="3.9609945" /><rect
       style="opacity:1;fill:none;stroke:#ff0000;stroke-width:0.1;stroke-linecap:round;stroke-linejoin:round;stroke-dasharray:none;stroke-opacity:1"
       id="rect11-9-1"
       width="179.92198"
       height="7.921989"
       x="220.63739"
       y="288.54279"
       ry="3.9609945" /><rect
       style="opacity:1;fill:none;stroke:#ff0000;stroke-width:0.1;stroke-linecap:round;stroke-linejoin:round;stroke-dasharray:none;stroke-opacity:1"
       id="rect11-9-11"
       width="179.92198"
       height="7.921989"
       x="220.63739"
       y="309.02518"
       ry="3.9609945" /></g><g
     id="p-7"
     style="fill:none;stroke-linecap:round;stroke-linejoin:round;"><path
       d="M 212.800 355.600 H 225.300 C 225.355 355.600 225.400 355.555 225.400 355.500 V 350.600 C 225.400 350.500 225.300 350.600 225.400 350.600 H 235.200 C 235.300 350.600 235.200 350.500 235.200 350.600 V 355.500 C 235.200 355.555 235.245 355.600 235.300 355.600 H 245.300 C 245.355 355.600 245.400 355.555 245.400 355.500 V 350.600 C 245.400 350.500 245.300 350.600 245.400 350.600 H 255.200 C 255.300 350.600 255.200 350.500 255.200 350.600 V 355.500 C 255.200 355.555 255.245 355.600 255.300 355.600 H 265.300 C 265.355 355.600 265.400 355.555 265.400 355.500 V 350.600 C 265.400 350.500 265.300 350.600 265.400 350.600 H 275.200 C 275.300 350.600 275.200 350.500 275.200 350.600 V 355.500 C 275.200 355.555 275.245 355.600 275.300 355.600 H 285.300 C 285.355 355.600 285.400 355.555 285.400 355.500 V 350.600 C 285.400 350.500 285.300 350.600 285.400 350.600 H 295.200 C 295.300 350.600 295.200 350.500 295.200 350.600 V 355.500 C 295.200 355.555 295.245 355.600 295.300 355.600 H 305.300 C 305.355 355.600 305.400 355.555 305.400 355.500 V 350.600 C 305.400 350.500 305.300 350.600 305.400 350.600 H 315.200 C 315.300 350.600 315.200 350.500 315.200 350.600 V 355.500 C 315.200 355.555 315.245 355.600 315.300 355.600 H 325.300 C 325.355 355.600 325.400 355.555 325.400 355.500 V 350.600 C 325.400 350.500 325.300 350.600 325.400 350.600 H 335.200 C 335.300 350.600 335.200 350.500 335.200 350.600 V 355.500 C 335.200 355.555 335.245 355.600 335.300 355.600 H 345.300 C 345.355 355.600 345.400 355.555 345.400 355.500 V 350.600 C 345.400 350.500 345.300 350.600 345.400 350.600 H 355.200 C 355.300 350.600 355.200 350.500 355.200 350.600 V 355.500 C 355.200 355.555 355.245 355.600 355.300 355.600 H 365.300 C 365.355 355.600 365.400 355.555 365.400 355.500 V 350.600 C 365.400 350.500 365.300 350.600 365.400 350.600 H 375.200 C 375.300 350.600 375.200 350.500 375.200 350.600 V 355.500 C 375.200 355.555 375.245 355.600 375.300 355.600 H 385.300 C 385.355 355.600 385.400 355.555 385.400 355.500 V 350.600 C 385.400 350.500 385.300 350.600 385.400 350.600 H 395.200 C 395.300 350.600 395.200 350.500 395.200 350.600 V 355.500 C 395.200 355.555 395.245 355.600 395.300 355.600 H 407.800 H 412.800 C 412.855 355.600 412.900 355.555 412.900 355.500 V 350.500 V 340.500 C 412.900 340.445 412.855 340.400 412.800 340.400 H 407.900 C 407.800 340.400 407.900 340.500 407.900 340.400 V 330.600 C 407.900 330.500 407.800 330.600 407.900 330.600 H 412.800 C 412.855 330.600 412.900 330.555 412.900 330.500 V 320.500 C 412.900 320.445 412.855 320.400 412.800 320.400 H 407.900 C 407.800 320.400 407.900 320.500 407.900 320.400 V 310.600 C 407.900 310.500 407.800 310.600 407.900 310.600 H 412.800 C 412.855 310.600 412.900 310.555 412.900 310.500 V 300.500 C 412.900 300.445 412.855 300.400 412.800 300.400 H 407.900 C 407.800 300.400 407.900 300.500 407.900 300.400 V 290.600 C 407.900 290.500 407.800 290.600 407.900 290.600 H 412.800 C 412.855 290.600 412.900 290.555 412.900 290.500 V 280.500 C 412.900 280.445 412.855 280.400 412.800 280.400 H 407.900 C 407.800 280.400 407.900 280.500 407.900 280.400 V 270.600 C 407.900 270.500 407.800 270.600 407.900 270.600 H 412.800 C 412.855 270.600 412.900 270.555 412.900 270.500 V 260.500 C 412.900 260.445 412.855 260.400 412.800 260.400 H 407.900 C 407.800 260.400 407.900 260.500 407.900 260.400 V 250.600 C 407.900 250.500 407.800 250.600 407.900 250.600 H 412.800 C 412.855 250.600 412.900 250.555 412.900 250.500 V 240.500 C 412.900 240.445 412.855 240.400 412.800 240.400 H 407.900 C 407.800 240.400 407.900 240.500 407.900 240.400 V 230.600 C 407.900 230.500 407.800 230.600 407.900 230.600 H 412.800 C 412.855 230.600 412.900 230.555 412.900 230.500 V 220.500 C 412.900 220.445 412.855 220.400 412.800 220.400 H 407.900 C 407.800 220.400 407.900 220.500 407.900 220.400 V 210.600 C 407.900 210.500 407.800 210.600 407.900 210.600 H 412.800 C 412.855 210.600 412.900 210.555 412.900 210.500 V 200.500 C 412.900 200.445 412.855 200.400 412.800 200.400 H 407.900 C 407.800 200.400 407.900 200.500 407.900 200.400 V 190.600 C 407.900 190.500 407.800 190.600 407.900 190.600 H 412.800 C 412.855 190.600 412.900 190.555 412.900 190.500 V 180.500 C 412.900 180.445 412.855 180.400 412.800 180.400 H 407.900 C 407.800 180.400 407.900 180.500 407.900 180.400 V 170.600 C 407.900 170.500 407.800 170.600 407.900 170.600 H 412.800 C 412.855 170.600 412.900 170.555 412.900 170.500 V 160.500 V 155.500 C 412.900 155.445 412.855 155.400 412.800 155.400 H 407.800 H 395.300 C 395.245 155.400 395.200 155.445 395.200 155.500 V 160.400 C 395.200 160.500 395.300 160.400 395.200 160.400 H 385.400 C 385.300 160.400 385.400 160.500 385.400 160.400 V 155.500 C 385.400 155.445 385.355 155.400 385.300 155.400 H 375.300 C 375.245 155.400 375.200 155.445 375.200 155.500 V 160.400 C 375.200 160.500 375.300 160.400 375.200 160.400 H 365.400 C 365.300 160.400 365.400 160.500 365.400 160.400 V 155.500 C 365.400 155.445 365.355 155.400 365.300 155.400 H 355.300 C 355.245 155.400 355.200 155.445 355.200 155.500 V 160.400 C 355.200 160.500 355.300 160.400 355.200 160.400 H 345.400 C 345.300 160.400 345.400 160.500 345.400 160.400 V 155.500 C 345.400 155.445 345.355 155.400 345.300 155.400 H 335.300 C 335.245 155.400 335.200 155.445 335.200 155.500 V 160.400 C 335.200 160.500 335.300 160.400 335.200 160.400 H 325.400 C 325.300 160.400 325.400 160.500 325.400 160.400 V 155.500 C 325.400 155.445 325.355 155.400 325.300 155.400 H 315.300 C 315.245 155.400 315.200 155.445 315.200 155.500 V 160.400 C 315.200 160.500 315.300 160.400 315.200 160.400 H 305.400 C 305.300 160.400 305.400 160.500 305.400 160.400 V 155.500 C 305.400 155.445 305.355 155.400 305.300 155.400 H 295.300 C 295.245 155.400 295.200 155.445 295.200 155.500 V 160.400 C 295.200 160.500 295.300 160.400 295.200 160.400 H 285.400 C 285.300 160.400 285.400 160.500 285.400 160.400 V 155.500 C 285.400 155.445 285.355 155.400 285.300 155.400 H 275.300 C 275.245 155.400 275.200 155.445 275.200 155.500 V 160.400 C 275.200 160.500 275.300 160.400 275.200 160.400 H 265.400 C 265.300 160.400 265.400 160.500 265.400 160.400 V 155.500 C 265.400 155.445 265.355 155.400 265.300 155.400 H 255.300 C 255.245 155.400 255.200 155.445 255.200 155.500 V 160.400 C 255.200 160.500 255.300 160.400 255.200 160.400 H 245.400 C 245.300 160.400 245.400 160.500 245.400 160.400 V 155.500 C 245.400 155.445 245.355 155.400 245.300 155.400 H 235.300 C 235.245 155.400 235.200 155.445 235.200 155.500 V 160.400 C 235.200 160.500 235.300 160.400 235.200 160.400 H 225.400 C 225.300 160.400 225.400 160.500 225.400 160.400 V 155.500 C 225.400 155.445 225.355 155.400 225.300 155.400 H 212.800 C 212.745 155.400 212.700 155.445 212.700 155.500 V 160.500 V 350.500 V 355.500 C 212.700 355.555 212.745 355.600 212.800 355.600 Z"
       stroke="rgb(0,0,0)"
       stroke-width="0.20"
       id="path8"
       style="stroke-width:0.1;stroke-dasharray:none;stroke:#ff0000;stroke-opacity:1" /><text
       dominant-baseline="hanging"
       font-size="4px"
       style="font-style:normal;font-weight:normal;font-family:sans-serif;fill:#ff0000"
       text-anchor="middle"
       transform="translate(312.8,253.6)"
       id="text8" /></g><g
     id="p-8"
     style="fill:none;stroke-linecap:round;stroke-linejoin:round;"><path
       d="M 212.800 147.900 H 225.200 C 225.300 147.900 225.200 147.800 225.200 147.900 V 152.800 C 225.200 152.855 225.245 152.900 225.300 152.900 H 235.300 C 235.355 152.900 235.400 152.855 235.400 152.800 V 147.900 C 235.400 147.800 235.300 147.900 235.400 147.900 H 245.200 C 245.300 147.900 245.200 147.800 245.200 147.900 V 152.800 C 245.200 152.855 245.245 152.900 245.300 152.900 H 255.300 C 255.355 152.900 255.400 152.855 255.400 152.800 V 147.900 C 255.400 147.800 255.300 147.900 255.400 147.900 H 265.200 C 265.300 147.900 265.200 147.800 265.200 147.900 V 152.800 C 265.200 152.855 265.245 152.900 265.300 152.900 H 275.300 C 275.355 152.900 275.400 152.855 275.400 152.800 V 147.900 C 275.400 147.800 275.300 147.900 275.400 147.900 H 285.200 C 285.300 147.900 285.200 147.800 285.200 147.900 V 152.800 C 285.200 152.855 285.245 152.900 285.300 152.900 H 295.300 C 295.355 152.900 295.400 152.855 295.400 152.800 V 147.900 C 295.400 147.800 295.300 147.900 295.400 147.900 H 305.200 C 305.300 147.900 305.200 147.800 305.200 147.900 V 152.800 C 305.200 152.855 305.245 152.900 305.300 152.900 H 315.300 C 315.355 152.900 315.400 152.855 315.400 152.800 V 147.900 C 315.400 147.800 315.300 147.900 315.400 147.900 H 325.200 C 325.300 147.900 325.200 147.800 325.200 147.900 V 152.800 C 325.200 152.855 325.245 152.900 325.300 152.900 H 335.300 C 335.355 152.900 335.400 152.855 335.400 152.800 V 147.900 C 335.400 147.800 335.300 147.900 335.400 147.900 H 345.200 C 345.300 147.900 345.200 147.800 345.200 147.900 V 152.800 C 345.200 152.855 345.245 152.900 345.300 152.900 H 355.300 C 355.355 152.900 355.400 152.855 355.400 152.800 V 147.900 C 355.400 147.800 355.300 147.900 355.400 147.900 H 365.200 C 365.300 147.900 365.200 147.800 365.200 147.900 V 152.800 C 365.200 152.855 365.245 152.900 365.300 152.900 H 375.300 C 375.355 152.900 375.400 152.855 375.400 152.800 V 147.900 C 375.400 147.800 375.300 147.900 375.400 147.900 H 385.200 C 385.300 147.900 385.200 147.800 385.200 147.900 V 152.800 C 385.200 152.855 385.245 152.900 385.300 152.900 H 395.300 C 395.355 152.900 395.400 152.855 395.400 152.800 V 147.900 C 395.400 147.800 395.300 147.900 395.400 147.900 H 407.800 C 407.855 147.900 407.900 147.855 407.900 147.800 V 132.900 C 407.900 132.800 407.800 132.900 407.900 132.900 H 412.800 C 412.855 132.900 412.900 132.855 412.900 132.800 V 122.800 C 412.900 122.745 412.855 122.700 412.800 122.700 H 407.900 C 407.800 122.700 407.900 122.800 407.900 122.700 V 112.900 C 407.900 112.800 407.800 112.900 407.900 112.900 H 412.800 C 412.855 112.900 412.900 112.855 412.900 112.800 V 102.800 C 412.900 102.745 412.855 102.700 412.800 102.700 H 407.900 C 407.800 102.700 407.900 102.800 407.900 102.700 V 87.800 C 407.900 87.745 407.855 87.700 407.800 87.700 H 395.400 C 395.300 87.700 395.400 87.800 395.400 87.700 V 82.800 C 395.400 82.745 395.355 82.700 395.300 82.700 H 385.300 C 385.245 82.700 385.200 82.745 385.200 82.800 V 87.700 C 385.200 87.800 385.300 87.700 385.200 87.700 H 375.400 C 375.300 87.700 375.400 87.800 375.400 87.700 V 82.800 C 375.400 82.745 375.355 82.700 375.300 82.700 H 365.300 C 365.245 82.700 365.200 82.745 365.200 82.800 V 87.700 C 365.200 87.800 365.300 87.700 365.200 87.700 H 355.400 C 355.300 87.700 355.400 87.800 355.400 87.700 V 82.800 C 355.400 82.745 355.355 82.700 355.300 82.700 H 345.300 C 345.245 82.700 345.200 82.745 345.200 82.800 V 87.700 C 345.200 87.800 345.300 87.700 345.200 87.700 H 335.400 C 335.300 87.700 335.400 87.800 335.400 87.700 V 82.800 C 335.400 82.745 335.355 82.700 335.300 82.700 H 325.300 C 325.245 82.700 325.200 82.745 325.200 82.800 V 87.700 C 325.200 87.800 325.300 87.700 325.200 87.700 H 315.400 C 315.300 87.700 315.400 87.800 315.400 87.700 V 82.800 C 315.400 82.745 315.355 82.700 315.300 82.700 H 305.300 C 305.245 82.700 305.200 82.745 305.200 82.800 V 87.700 C 305.200 87.800 305.300 87.700 305.200 87.700 H 295.400 C 295.300 87.700 295.400 87.800 295.400 87.700 V 82.800 C 295.400 82.745 295.355 82.700 295.300 82.700 H 285.300 C 285.245 82.700 285.200 82.745 285.200 82.800 V 87.700 C 285.200 87.800 285.300 87.700 285.200 87.700 H 275.400 C 275.300 87.700 275.400 87.800 275.400 87.700 V 82.800 C 275.400 82.745 275.355 82.700 275.300 82.700 H 265.300 C 265.245 82.700 265.200 82.745 265.200 82.800 V 87.700 C 265.200 87.800 265.300 87.700 265.200 87.700 H 255.400 C 255.300 87.700 255.400 87.800 255.400 87.700 V 82.800 C 255.400 82.745 255.355 82.700 255.300 82.700 H 245.300 C 245.245 82.700 245.200 82.745 245.200 82.800 V 87.700 C 245.200 87.800 245.300 87.700 245.200 87.700 H 235.400 C 235.300 87.700 235.400 87.800 235.400 87.700 V 82.800 C 235.400 82.745 235.355 82.700 235.300 82.700 H 225.300 C 225.245 82.700 225.200 82.745 225.200 82.800 V 87.700 C 225.200 87.800 225.300 87.700 225.200 87.700 H 212.800 C 212.745 87.700 212.700 87.745 212.700 87.800 V 147.800 C 212.700 147.855 212.745 147.900 212.800 147.900 Z"
       stroke="rgb(0,0,0)"
       stroke-width="0.20"
       id="path9"
       style="stroke:#ff0000;stroke-opacity:1;stroke-width:0.1;stroke-dasharray:none" /><text
       dominant-baseline="hanging"
       font-size="4px"
       style="font-style:normal;font-weight:normal;font-family:sans-serif;fill:#ff0000"
       text-anchor="middle"
       transform="translate(312.8,115.9)"
       id="text9" /></g><g
     id="p-9"
     style="fill:none;stroke-linecap:round;stroke-linejoin:round;"><path
       d="M 10.100 147.900 H 22.500 C 22.600 147.900 22.500 147.800 22.500 147.900 V 152.800 C 22.500 152.855 22.545 152.900 22.600 152.900 H 32.600 C 32.655 152.900 32.700 152.855 32.700 152.800 V 147.900 C 32.700 147.800 32.600 147.900 32.700 147.900 H 42.500 C 42.600 147.900 42.500 147.800 42.500 147.900 V 152.800 C 42.500 152.855 42.545 152.900 42.600 152.900 H 52.600 C 52.655 152.900 52.700 152.855 52.700 152.800 V 147.900 C 52.700 147.800 52.600 147.900 52.700 147.900 H 62.500 C 62.600 147.900 62.500 147.800 62.500 147.900 V 152.800 C 62.500 152.855 62.545 152.900 62.600 152.900 H 72.600 C 72.655 152.900 72.700 152.855 72.700 152.800 V 147.900 C 72.700 147.800 72.600 147.900 72.700 147.900 H 82.500 C 82.600 147.900 82.500 147.800 82.500 147.900 V 152.800 C 82.500 152.855 82.545 152.900 82.600 152.900 H 92.600 C 92.655 152.900 92.700 152.855 92.700 152.800 V 147.900 C 92.700 147.800 92.600 147.900 92.700 147.900 H 102.500 C 102.600 147.900 102.500 147.800 102.500 147.900 V 152.800 C 102.500 152.855 102.545 152.900 102.600 152.900 H 112.600 C 112.655 152.900 112.700 152.855 112.700 152.800 V 147.900 C 112.700 147.800 112.600 147.900 112.700 147.900 H 122.500 C 122.600 147.900 122.500 147.800 122.500 147.900 V 152.800 C 122.500 152.855 122.545 152.900 122.600 152.900 H 132.600 C 132.655 152.900 132.700 152.855 132.700 152.800 V 147.900 C 132.700 147.800 132.600 147.900 132.700 147.900 H 142.500 C 142.600 147.900 142.500 147.800 142.500 147.900 V 152.800 C 142.500 152.855 142.545 152.900 142.600 152.900 H 152.600 C 152.655 152.900 152.700 152.855 152.700 152.800 V 147.900 C 152.700 147.800 152.600 147.900 152.700 147.900 H 162.500 C 162.600 147.900 162.500 147.800 162.500 147.900 V 152.800 C 162.500 152.855 162.545 152.900 162.600 152.900 H 172.600 C 172.655 152.900 172.700 152.855 172.700 152.800 V 147.900 C 172.700 147.800 172.600 147.900 172.700 147.900 H 182.500 C 182.600 147.900 182.500 147.800 182.500 147.900 V 152.800 C 182.500 152.855 182.545 152.900 182.600 152.900 H 192.600 C 192.655 152.900 192.700 152.855 192.700 152.800 V 147.900 C 192.700 147.800 192.600 147.900 192.700 147.900 H 205.100 C 205.155 147.900 205.200 147.855 205.200 147.800 V 132.900 C 205.200 132.800 205.100 132.900 205.200 132.900 H 210.100 C 210.155 132.900 210.200 132.855 210.200 132.800 V 122.800 C 210.200 122.745 210.155 122.700 210.100 122.700 H 205.200 C 205.100 122.700 205.200 122.800 205.200 122.700 V 112.900 C 205.200 112.800 205.100 112.900 205.200 112.900 H 210.100 C 210.155 112.900 210.200 112.855 210.200 112.800 V 102.800 C 210.200 102.745 210.155 102.700 210.100 102.700 H 205.200 C 205.100 102.700 205.200 102.800 205.200 102.700 V 87.800 C 205.200 87.745 205.155 87.700 205.100 87.700 H 192.700 C 192.600 87.700 192.700 87.800 192.700 87.700 V 82.800 C 192.700 82.745 192.655 82.700 192.600 82.700 H 182.600 C 182.545 82.700 182.500 82.745 182.500 82.800 V 87.700 C 182.500 87.800 182.600 87.700 182.500 87.700 H 172.700 C 172.600 87.700 172.700 87.800 172.700 87.700 V 82.800 C 172.700 82.745 172.655 82.700 172.600 82.700 H 162.600 C 162.545 82.700 162.500 82.745 162.500 82.800 V 87.700 C 162.500 87.800 162.600 87.700 162.500 87.700 H 152.700 C 152.600 87.700 152.700 87.800 152.700 87.700 V 82.800 C 152.700 82.745 152.655 82.700 152.600 82.700 H 142.600 C 142.545 82.700 142.500 82.745 142.500 82.800 V 87.700 C 142.500 87.800 142.600 87.700 142.500 87.700 H 132.700 C 132.600 87.700 132.700 87.800 132.700 87.700 V 82.800 C 132.700 82.745 132.655 82.700 132.600 82.700 H 122.600 C 122.545 82.700 122.500 82.745 122.500 82.800 V 87.700 C 122.500 87.800 122.600 87.700 122.500 87.700 H 112.700 C 112.600 87.700 112.700 87.800 112.700 87.700 V 82.800 C 112.700 82.745 112.655 82.700 112.600 82.700 H 102.600 C 102.545 82.700 102.500 82.745 102.500 82.800 V 87.700 C 102.500 87.800 102.600 87.700 102.500 87.700 H 92.700 C 92.600 87.700 92.700 87.800 92.700 87.700 V 82.800 C 92.700 82.745 92.655 82.700 92.600 82.700 H 82.600 C 82.545 82.700 82.500 82.745 82.500 82.800 V 87.700 C 82.500 87.800 82.600 87.700 82.500 87.700 H 72.700 C 72.600 87.700 72.700 87.800 72.700 87.700 V 82.800 C 72.700 82.745 72.655 82.700 72.600 82.700 H 62.600 C 62.545 82.700 62.500 82.745 62.500 82.800 V 87.700 C 62.500 87.800 62.600 87.700 62.500 87.700 H 52.700 C 52.600 87.700 52.700 87.800 52.700 87.700 V 82.800 C 52.700 82.745 52.655 82.700 52.600 82.700 H 42.600 C 42.545 82.700 42.500 82.745 42.500 82.800 V 87.700 C 42.500 87.800 42.600 87.700 42.500 87.700 H 32.700 C 32.600 87.700 32.700 87.800 32.700 87.700 V 82.800 C 32.700 82.745 32.655 82.700 32.600 82.700 H 22.600 C 22.545 82.700 22.500 82.745 22.500 82.800 V 87.700 C 22.500 87.800 22.600 87.700 22.500 87.700 H 10.100 C 10.045 87.700 10.000 87.745 10.000 87.800 V 147.800 C 10.000 147.855 10.045 147.900 10.100 147.900 Z"
       stroke="rgb(0,0,0)"
       stroke-width="0.20"
       id="path10"
       style="stroke-width:0.1;stroke-dasharray:none;stroke:#ff0000;stroke-opacity:1" /><text
       dominant-baseline="hanging"
       font-size="4px"
       style="font-style:normal;font-weight:normal;font-family:sans-serif;fill:#ff0000"
       text-anchor="middle"
       transform="translate(110.1,115.9)"
       id="text10" /></g><g
     id="p-10"
     style="fill:none;stroke-linecap:round;stroke-linejoin:round;"><path
       d="M 15.100 75.200 H 25.000 C 25.100 75.200 25.000 75.100 25.000 75.200 V 80.100 C 25.000 80.155 25.045 80.200 25.100 80.200 H 35.100 C 35.155 80.200 35.200 80.155 35.200 80.100 V 75.200 C 35.200 75.100 35.100 75.200 35.200 75.200 H 45.000 C 45.100 75.200 45.000 75.100 45.000 75.200 V 80.100 C 45.000 80.155 45.045 80.200 45.100 80.200 H 55.100 C 55.155 80.200 55.200 80.155 55.200 80.100 V 75.200 C 55.200 75.100 55.100 75.200 55.200 75.200 H 65.000 C 65.100 75.200 65.000 75.100 65.000 75.200 V 80.100 C 65.000 80.155 65.045 80.200 65.100 80.200 H 75.100 C 75.155 80.200 75.200 80.155 75.200 80.100 V 75.200 C 75.200 75.100 75.100 75.200 75.200 75.200 H 85.000 C 85.100 75.200 85.000 75.100 85.000 75.200 V 80.100 C 85.000 80.155 85.045 80.200 85.100 80.200 H 95.100 C 95.155 80.200 95.200 80.155 95.200 80.100 V 75.200 C 95.200 75.100 95.100 75.200 95.200 75.200 H 105.000 C 105.100 75.200 105.000 75.100 105.000 75.200 V 80.100 C 105.000 80.155 105.045 80.200 105.100 80.200 H 115.100 C 115.155 80.200 115.200 80.155 115.200 80.100 V 75.200 C 115.200 75.100 115.100 75.200 115.200 75.200 H 125.000 C 125.100 75.200 125.000 75.100 125.000 75.200 V 80.100 C 125.000 80.155 125.045 80.200 125.100 80.200 H 135.100 C 135.155 80.200 135.200 80.155 135.200 80.100 V 75.200 C 135.200 75.100 135.100 75.200 135.200 75.200 H 145.000 C 145.100 75.200 145.000 75.100 145.000 75.200 V 80.100 C 145.000 80.155 145.045 80.200 145.100 80.200 H 155.100 C 155.155 80.200 155.200 80.155 155.200 80.100 V 75.200 C 155.200 75.100 155.100 75.200 155.200 75.200 H 165.000 C 165.100 75.200 165.000 75.100 165.000 75.200 V 80.100 C 165.000 80.155 165.045 80.200 165.100 80.200 H 175.100 C 175.155 80.200 175.200 80.155 175.200 80.100 V 75.200 C 175.200 75.100 175.100 75.200 175.200 75.200 H 185.000 C 185.100 75.200 185.000 75.100 185.000 75.200 V 80.100 C 185.000 80.155 185.045 80.200 185.100 80.200 H 195.100 C 195.155 80.200 195.200 80.155 195.200 80.100 V 75.200 C 195.200 75.100 195.100 75.200 195.200 75.200 H 205.100 H 210.100 C 210.155 75.200 210.200 75.155 210.200 75.100 V 60.100 C 210.200 60.045 210.155 60.000 210.100 60.000 H 205.200 C 205.100 60.000 205.200 60.100 205.200 60.000 V 50.200 C 205.200 50.100 205.100 50.200 205.200 50.200 H 210.100 C 210.155 50.200 210.200 50.155 210.200 50.100 V 40.100 C 210.200 40.045 210.155 40.000 210.100 40.000 H 205.200 C 205.100 40.000 205.200 40.100 205.200 40.000 V 30.200 C 205.200 30.100 205.100 30.200 205.200 30.200 H 210.100 C 210.155 30.200 210.200 30.155 210.200 30.100 V 15.100 C 210.200 15.045 210.155 15.000 210.100 15.000 H 205.100 H 195.200 C 195.100 15.000 195.200 15.100 195.200 15.000 V 10.100 C 195.200 10.045 195.155 10.000 195.100 10.000 H 185.100 C 185.045 10.000 185.000 10.045 185.000 10.100 V 15.000 C 185.000 15.100 185.100 15.000 185.000 15.000 H 175.200 C 175.100 15.000 175.200 15.100 175.200 15.000 V 10.100 C 175.200 10.045 175.155 10.000 175.100 10.000 H 165.100 C 165.045 10.000 165.000 10.045 165.000 10.100 V 15.000 C 165.000 15.100 165.100 15.000 165.000 15.000 H 155.200 C 155.100 15.000 155.200 15.100 155.200 15.000 V 10.100 C 155.200 10.045 155.155 10.000 155.100 10.000 H 145.100 C 145.045 10.000 145.000 10.045 145.000 10.100 V 15.000 C 145.000 15.100 145.100 15.000 145.000 15.000 H 135.200 C 135.100 15.000 135.200 15.100 135.200 15.000 V 10.100 C 135.200 10.045 135.155 10.000 135.100 10.000 H 125.100 C 125.045 10.000 125.000 10.045 125.000 10.100 V 15.000 C 125.000 15.100 125.100 15.000 125.000 15.000 H 115.200 C 115.100 15.000 115.200 15.100 115.200 15.000 V 10.100 C 115.200 10.045 115.155 10.000 115.100 10.000 H 105.100 C 105.045 10.000 105.000 10.045 105.000 10.100 V 15.000 C 105.000 15.100 105.100 15.000 105.000 15.000 H 95.200 C 95.100 15.000 95.200 15.100 95.200 15.000 V 10.100 C 95.200 10.045 95.155 10.000 95.100 10.000 H 85.100 C 85.045 10.000 85.000 10.045 85.000 10.100 V 15.000 C 85.000 15.100 85.100 15.000 85.000 15.000 H 75.200 C 75.100 15.000 75.200 15.100 75.200 15.000 V 10.100 C 75.200 10.045 75.155 10.000 75.100 10.000 H 65.100 C 65.045 10.000 65.000 10.045 65.000 10.100 V 15.000 C 65.000 15.100 65.100 15.000 65.000 15.000 H 55.200 C 55.100 15.000 55.200 15.100 55.200 15.000 V 10.100 C 55.200 10.045 55.155 10.000 55.100 10.000 H 45.100 C 45.045 10.000 45.000 10.045 45.000 10.100 V 15.000 C 45.000 15.100 45.100 15.000 45.000 15.000 H 35.200 C 35.100 15.000 35.200 15.100 35.200 15.000 V 10.100 C 35.200 10.045 35.155 10.000 35.100 10.000 H 25.100 C 25.045 10.000 25.000 10.045 25.000 10.100 V 15.000 C 25.000 15.100 25.100 15.000 25.000 15.000 H 15.100 H 10.100 C 10.045 15.000 10.000 15.045 10.000 15.100 V 30.100 C 10.000 30.155 10.045 30.200 10.100 30.200 H 15.000 C 15.100 30.200 15.000 30.100 15.000 30.200 V 40.000 C 15.000 40.100 15.100 40.000 15.000 40.000 H 10.100 C 10.045 40.000 10.000 40.045 10.000 40.100 V 50.100 C 10.000 50.155 10.045 50.200 10.100 50.200 H 15.000 C 15.100 50.200 15.000 50.100 15.000 50.200 V 60.000 C 15.000 60.100 15.100 60.000 15.000 60.000 H 10.100 C 10.045 60.000 10.000 60.045 10.000 60.100 V 75.100 C 10.000 75.155 10.045 75.200 10.100 75.200 H 15.100 Z"
       stroke="rgb(0,0,0)"
       stroke-width="0.20"
       id="path11"
       style="stroke:#ff0000;stroke-opacity:1;stroke-width:0.1;stroke-dasharray:none" /><text
       dominant-baseline="hanging"
       font-size="4px"
       style="font-style:normal;font-weight:normal;font-family:sans-serif;fill:#ff0000"
       text-anchor="middle"
       transform="translate(110.1,43.2)"
       id="text11" /></g></svg>
